<svg width="1200" height="800" viewBox="0 0 1200 800" fill="none" xmlns="http://www.w3.org/2000/svg">
  <rect width="1200" height="800" rx="40" fill="url(#paint0_linear)"/>
  <circle cx="214" cy="140" r="190" fill="#FFFFFF" fill-opacity="0.14"/>
  <circle cx="1036" cy="646" r="220" fill="#FFFFFF" fill-opacity="0.1"/>
  <rect x="420" y="286" width="360" height="250" rx="112" fill="#F7F9FC"/>
  <path d="M534 296C534 255.131 567.131 222 608 222C648.869 222 682 255.131 682 296V334H534V296Z" fill="#EEF2F7"/>
  <rect x="508" y="354" width="56" height="210" rx="28" fill="#F7F9FC"/>
  <rect x="652" y="354" width="56" height="210" rx="28" fill="#F7F9FC"/>
  <rect x="518" y="508" width="36" height="112" rx="18" fill="#DCE3EC"/>
  <rect x="662" y="508" width="36" height="112" rx="18" fill="#DCE3EC"/>
  <circle cx="536" cy="418" r="18" fill="#D5DEE8"/>
  <circle cx="680" cy="418" r="18" fill="#D5DEE8"/>
  <text x="88" y="120" fill="white" fill-opacity="0.92" font-family="Segoe UI, Arial, sans-serif" font-size="44" font-weight="700">AirPods Pro 2</text>
  <text x="88" y="174" fill="white" fill-opacity="0.74" font-family="Segoe UI, Arial, sans-serif" font-size="26">Tai nghe không dây nhỏ gọn, chống ồn và kết nối nhanh</text>
  <defs>
    <linearGradient id="paint0_linear" x1="44" y1="40" x2="1120" y2="750" gradientUnits="userSpaceOnUse">
      <stop stop-color="#283E51"/>
      <stop offset="1" stop-color="#4B79A1"/>
    </linearGradient>
  </defs>
</svg>
