<svg width="1200" height="800" viewBox="0 0 1200 800" fill="none" xmlns="http://www.w3.org/2000/svg">
  <rect width="1200" height="800" rx="40" fill="url(#paint0_linear)"/>
  <circle cx="1014" cy="124" r="178" fill="#FFFFFF" fill-opacity="0.18"/>
  <circle cx="176" cy="640" r="212" fill="#FFFFFF" fill-opacity="0.12"/>
  <rect x="232" y="188" width="736" height="392" rx="28" fill="#1C2940"/>
  <rect x="258" y="214" width="684" height="340" rx="18" fill="url(#paint1_linear)"/>
  <rect x="184" y="580" width="832" height="44" rx="22" fill="#D5DBE6"/>
  <rect x="146" y="624" width="908" height="26" rx="13" fill="#A7B0C0"/>
  <path d="M603.432 310C591.546 310 581.948 319.742 581.948 331.725C581.948 343.708 591.546 353.45 603.432 353.45C615.318 353.45 624.916 343.708 624.916 331.725C624.916 319.742 615.318 310 603.432 310Z" fill="#F7F9FC" fill-opacity="0.92"/>
  <path d="M603.519 278C592.842 278 584.033 286.936 583.323 297.988C592.931 299.033 600.315 307.274 600.315 317.092C600.315 318.798 600.09 320.456 599.67 322.029C608.685 320.915 615.679 313.133 615.679 303.787C615.679 289.937 606.72 278 603.519 278Z" fill="#F7F9FC" fill-opacity="0.92"/>
  <text x="110" y="120" fill="white" fill-opacity="0.9" font-family="Segoe UI, Arial, sans-serif" font-size="44" font-weight="700">MacBook Air M3</text>
  <text x="110" y="174" fill="white" fill-opacity="0.72" font-family="Segoe UI, Arial, sans-serif" font-size="26">Thiết kế mỏng nhẹ, pin lâu, phù hợp học tập và làm việc</text>
  <defs>
    <linearGradient id="paint0_linear" x1="72" y1="52" x2="1118" y2="742" gradientUnits="userSpaceOnUse">
      <stop stop-color="#1B5873"/>
      <stop offset="1" stop-color="#4E4376"/>
    </linearGradient>
    <linearGradient id="paint1_linear" x1="258" y1="214" x2="942" y2="554" gradientUnits="userSpaceOnUse">
      <stop stop-color="#74EBD5"/>
      <stop offset="1" stop-color="#ACB6E5"/>
    </linearGradient>
  </defs>
</svg>
